<svg xmlns="http://www.w3.org/2000/svg" xmlns:xlink="http://www.w3.org/1999/xlink" xml:space="preserve" id="Layer_2" width="550" height="400" x="0" y="0" viewBox="0 0 550 400"><symbol id="hand" viewBox="-364.275 -463.175 728.602 926.3"><g id="Layer_3_1_" fill-rule="evenodd" clip-rule="evenodd"><path fill="#fff" d="M209.5 105.85v-1.25l-.15-68.4.15-15.55-.15 15.55.15 68.4Zv32.8l8.4-1q13.75-1 40.6-1 46.25 0 64.25-41 5.65-12.8 7.75-28.2 1.05-7.7 1-12.8l-.25-51Q322-178.5 295.5-275.55q-26.45-97.05-47-153.8l-364-1q-54.3 259.45-215.95 404 37.05 172.1 172.95 3.95v373.05q.15 4.5.95 10.649 1.95 15.4 7.15 28.2 15.55 38.3 53.9 40.8 38.4-2.5 53.95-40.8 5.2-12.8 7.15-28.2.8-6.15.9-10.649v-242.1 117h8.4q13.75-1 40.6-1 46.25 0 64.25-41 5.65-12.8 7.75-28.2.85-6.15 1-10.65v-75 117h8.4q13.75-1 40.6-1 46.25 0 64.25-41 5.65-12.801 7.75-28.2.85-6.15 1-10.65m-.45-94.15.3 24.5Z"/><path fill="none" stroke="#000" stroke-linecap="round" stroke-linejoin="round" stroke-miterlimit="3" stroke-width="65.65" d="M209.5 105.85q-.15 4.5-1 10.65-2.1 15.4-7.75 28.2-18 41-64.25 41-26.85 0-40.6 1h-8.4v-117m0 75q-.15 4.5-1 10.65-2.1 15.4-7.75 28.2-18 41-64.25 41-26.85 0-40.6 1h-8.4v-117m0 117v125.1q-.1 4.5-.9 10.649-1.95 15.4-7.15 28.2-15.55 38.3-53.95 40.8-38.35-2.5-53.9-40.8-5.2-12.8-7.15-28.2-.8-6.15-.95-10.649V-22.4q-135.9 168.15-172.95-3.95 161.65-144.55 215.95-404l364 1q20.55 56.75 47 153.8Q322-178.5 331.25 3.65l.25 51q.05 5.1-1 12.8-2.1 15.4-7.75 28.2-18 41-64.25 41-26.85 0-40.6 1l-8.4 1V104.6l-.15-68.4.15-15.55m-.45-8.95.3 24.5"/></g></symbol><use xlink:href="#hand" width="728.602" height="926.3" x="-364.275" y="-463.175" overflow="visible" transform="matrix(.353 0 0 -.353 256.5 196.65)"/></svg>